<!-- Generated by IcoMoon.io -->
<svg version="1.1" xmlns="http://www.w3.org/2000/svg" width="500" height="500" viewBox="0 0 500 500">
<title>book</title>
<path d="M437.5 62.5v406.25h-328.125c-25.892 0-46.875-20.986-46.875-46.875s20.983-46.875 46.875-46.875h296.875v-375h-312.5c-34.374 0-62.5 28.125-62.5 62.5v375c0 34.375 28.126 62.5 62.5 62.5h375v-437.5h-31.25z"></path>
<path d="M109.402 406.25v0c-0.009 0.001-0.019 0-0.027 0-8.629 0-15.625 6.995-15.625 15.625s6.996 15.625 15.625 15.625c0.009 0 0.019-0.001 0.027-0.001v0.001h296.821v-31.25h-296.821z"></path>
</svg>
