<!-- Generated by IcoMoon.io -->
<svg version="1.1" xmlns="http://www.w3.org/2000/svg" width="500" height="500" viewBox="0 0 500 500">
<title>camera</title>
<path d="M148.438 296.875c0 56.092 45.471 101.563 101.563 101.563s101.563-45.471 101.563-101.563-45.471-101.563-101.563-101.563-101.563 45.471-101.563 101.563zM468.75 125h-109.375c-7.813-31.25-15.625-62.5-46.875-62.5h-125c-31.25 0-39.063 31.25-46.875 62.5h-109.375c-17.188 0-31.25 14.063-31.25 31.25v281.25c0 17.188 14.063 31.25 31.25 31.25h437.5c17.188 0 31.25-14.063 31.25-31.25v-281.25c0-17.188-14.063-31.25-31.25-31.25zM250 435.547c-76.587 0-138.672-62.084-138.672-138.672s62.085-138.672 138.672-138.672c76.588 0 138.672 62.085 138.672 138.672s-62.083 138.672-138.672 138.672zM468.75 218.75h-62.5v-31.25h62.5v31.25z"></path>
</svg>
