<!-- Generated by IcoMoon.io -->
<svg version="1.1" xmlns="http://www.w3.org/2000/svg" width="500" height="500" viewBox="0 0 500 500">
<title>clipboard</title>
<path d="M375 500.641h-281.25c-17.266 0-31.25-13.953-31.25-31.188v-376.516c0-17.219 13.984-31.172 31.25-31.172h78.125v32.484h-62.5c-8.625 0-15.625 6.969-15.625 15.594v344.016c0 8.641 7 15.594 15.625 15.594h250c8.641 0 15.625-6.953 15.625-15.594v-344.016c0-8.625-6.984-15.594-15.625-15.594h-62.5v-32.484h78.125c17.25 0 31.25 13.969 31.25 31.172v376.516c0 17.234-14 31.188-31.25 31.188zM171.875 187.797h171.875v15.594h-171.875v-15.594zM171.875 234.578h171.875v15.594h-171.875v-15.594zM171.875 281.375h171.875v15.594h-171.875v-15.594zM171.875 328.156h171.875v15.594h-171.875v-15.594zM343.75 437.281h-171.875v-15.562h171.875v15.562zM171.875 374.938h171.875v15.594h-171.875v-15.594zM125 187.484h15.625v15.594h-15.625v-15.594zM125 234.266h15.625v15.594h-15.625v-15.594zM125 281.031h15.625v15.594h-15.625v-15.594zM125 327.813h15.625v15.594h-15.625v-15.594zM140.625 436.984h-15.625v-15.594h15.625v15.594zM125 374.609h15.625v15.594h-15.625v-15.594zM328.125 110.797c8.641 0 15.625 6.984 15.625 15.609 0 8.609 0 30.203 0 30.203h-218.75c0 0 0-21.594 0-30.203 0-8.625 6.984-15.609 15.625-15.609h46.875c0 0 0.188-22.172 0.188-47.516 0-26.313 20.313-48.313 46.688-48.313s47.391 23.125 47.391 48.469c0 27.297-0.516 47.359-0.516 47.359h46.875zM234.375 61.766c-8.641 0-15.625 6.969-15.625 15.578 0 8.625 6.984 15.594 15.625 15.594s15.625-6.969 15.625-15.594c0-8.609-6.984-15.578-15.625-15.578z"></path>
</svg>
