<!-- Generated by IcoMoon.io -->
<svg version="1.1" xmlns="http://www.w3.org/2000/svg" width="500" height="500" viewBox="0 0 500 500">
<title>contract</title>
<path d="M93.75 0v500h375v-500h-375zM281.25 125.161c34.429 0 62.339 27.91 62.339 62.339s-27.91 62.339-62.339 62.339-62.339-27.91-62.339-62.339 27.91-62.339 62.339-62.339v0zM375 375h-187.5v-31.25c0-34.52 27.981-62.5 62.5-62.5v0h62.5c34.52 0 62.5 27.98 62.5 62.5v31.25z"></path>
<path d="M31.25 31.25h46.875v93.75h-46.875v-93.75z"></path>
<path d="M31.25 156.25h46.875v93.75h-46.875v-93.75z"></path>
<path d="M31.25 281.25h46.875v93.75h-46.875v-93.75z"></path>
<path d="M31.25 406.25h46.875v93.75h-46.875v-93.75z"></path>
</svg>
