<!-- Generated by IcoMoon.io -->
<svg version="1.1" xmlns="http://www.w3.org/2000/svg" width="500" height="500" viewBox="0 0 500 500">
<title>mail</title>
<path d="M437.5 78.125h-375c-34.516 0-62.5 28-62.5 62.5v203.125c0 34.516 27.984 62.5 62.5 62.5h375c34.516 0 62.5-27.984 62.5-62.5v-203.125c0-34.5-27.984-62.5-62.5-62.5zM31.25 160.156l109.359 82.031-109.359 82.031v-164.063zM468.75 343.75c0 17.25-14.031 31.25-31.25 31.25h-375c-17.234 0-31.25-14-31.25-31.25l122.375-91.797 68.25 51.203c8.328 6.219 18.219 9.375 28.125 9.375 9.891 0 19.781-3.141 28.109-9.375l68.266-51.203 122.375 91.797zM468.75 324.219l-109.375-82.031 109.375-82.031v164.063zM268.734 290.656c-5.453 4.094-11.922 6.25-18.734 6.25s-13.297-2.172-18.75-6.25l-200-150.031c0-17.234 14.016-31.25 31.25-31.25h375c17.219 0 31.25 14.016 31.25 31.25l-200.016 150.031z"></path>
</svg>
