<!-- Generated by IcoMoon.io -->
<svg version="1.1" xmlns="http://www.w3.org/2000/svg" width="500" height="500" viewBox="0 0 500 500">
<title>rss</title>
<path d="M66.55 366.665c-36.717 0-66.549 29.948-66.549 66.443 0 36.696 29.834 66.31 66.549 66.31 36.849 0 66.647-29.613 66.647-66.31-0.001-36.495-29.797-66.443-66.647-66.443zM0.076 169.888v95.829c62.395 0 121.073 24.4 165.263 68.609 44.133 44.101 68.497 103.045 68.497 165.674h96.251c-0.001-182.041-148.087-330.112-330.011-330.112zM0.189 0v95.877c222.55 0 403.689 181.315 403.689 404.123h96.121c0-275.62-224.245-500-499.811-500z"></path>
</svg>
