<!-- Generated by IcoMoon.io -->
<svg version="1.1" xmlns="http://www.w3.org/2000/svg" width="500" height="500" viewBox="0 0 500 500">
<title>spoon-knife</title>
<path d="M109.375 0c-51.777 0-93.75 48.969-93.75 109.375 0 51.721 30.772 95.052 72.122 106.444l-15.521 252.99c-1.052 17.154 12.149 31.19 29.337 31.19h15.625c17.188 0 30.389-14.036 29.337-31.19l-15.521-252.99c41.35-11.393 72.122-54.724 72.122-106.444 0-60.406-41.973-109.375-93.75-109.375zM424.479 0l-26.042 156.25h-19.531l-13.021-156.25h-13.021l-13.021 156.25h-19.531l-26.042-156.25h-13.021v203.125c0 8.629 6.995 15.625 15.625 15.625h40.692l-15.342 250.060c-1.052 17.154 12.149 31.19 29.337 31.19h15.625c17.188 0 30.389-14.036 29.337-31.19l-15.342-250.060h40.692c8.63 0 15.625-6.996 15.625-15.625v-203.125h-13.021z"></path>
</svg>
