<!-- Generated by IcoMoon.io -->
<svg version="1.1" xmlns="http://www.w3.org/2000/svg" width="500" height="500" viewBox="0 0 500 500">
<title>twitter</title>
<path d="M500 110.547c-18.359 8.203-38.184 13.672-58.887 16.113 21.191-12.695 37.402-32.812 45.117-56.738-19.824 11.719-41.797 20.312-65.137 24.902-18.75-19.922-45.41-32.324-74.902-32.324-56.641 0-102.539 45.898-102.539 102.539 0 8.008 0.879 15.82 2.637 23.34-85.254-4.297-160.84-45.117-211.426-107.227-8.789 15.137-13.867 32.813-13.867 51.562 0 35.547 18.066 66.992 45.605 85.352-16.797-0.488-32.617-5.176-46.484-12.793 0 0.391 0 0.879 0 1.27 0 49.707 35.352 91.211 82.324 100.586-8.594 2.344-17.676 3.613-27.051 3.613-6.641 0-12.988-0.684-19.336-1.855 13.086 40.723 50.977 70.41 95.801 71.289-35.156 27.539-79.297 43.945-127.441 43.945-8.301 0-16.406-0.488-24.512-1.465 45.508 29.199 99.414 46.094 157.324 46.094 188.672 0 291.895-156.348 291.895-291.895 0-4.492-0.098-8.887-0.293-13.281 20.020-14.355 37.402-32.422 51.172-53.027z"></path>
</svg>
